<?xml version="1.0" encoding="UTF-8"?>
<svg id="Layer_1" data-name="Layer 1" xmlns="http://www.w3.org/2000/svg" viewBox="0 0 500 500">
  <defs>
    <style>
      .cls-1 {
        fill: #231f20;
      }
    </style>
  </defs>
  <path class="cls-1" d="M60.71,180.26h257.12c58.89,0,114.29,42.11,123.36,101.38,2.71,17.74,2.71,44.05,0,61.78-8.78,57.35-61.02,99.76-118.22,101.99h-142.75c-36.45-1.72-69.91-18.46-93.09-46.32-17.85-21.45-26.94-48.68-26.43-76.68h90.81c.27,6.99,1.44,14.26,5.65,20.02,6.09,8.35,16.5,11.14,26.39,11.88h136.1c18.43-.93,30.96-10.11,32.04-29.31.41-7.37.44-17.58,0-24.93-1.2-20.08-14.95-27.79-33.56-28.7H60.71s0-91.11,0-91.11Z"/>
  <path class="cls-1" d="M420.63,54.82v65.45c0,5.16-5.01,13.87-8.66,17.46s-12.07,8.2-17.01,8.2H60.71V54.82h359.92ZM308.86,67.88h-94.46v14.88h39.33l.46.46v49.96h14.88v-50.42h39.79v-14.88ZM400.89,67.88h-81.1v14.88h65.91v7.44c0,4.03-6.26,9.26-10.17,9.26h-55.73v33.71h15.19v-18.83h42.37c6.69,0,15.26-6.12,18.93-11.45,7.11-10.32,3.9-23.21,4.61-35.02Z"/>
</svg>